# Blender v2.72 (sub 0) OBJ File: 'function_explosion.blend'
# www.blender.org
o Icosphere
v 0.000000 -0.054274 0.000000
v 0.039273 -0.024273 0.028533
v -0.015001 -0.024273 0.046168
v -0.065936 -0.018986 0.000217
v -0.015001 -0.024273 -0.046168
v 0.039273 -0.024273 -0.028533
v 0.015001 0.024273 0.046168
v -0.039273 0.024273 0.028533
v -0.039273 0.024273 -0.028533
v 0.015001 0.024273 -0.046168
v 0.056125 0.033937 -0.003078
v 0.000000 0.054274 0.000000
v -0.012636 -0.035686 0.038891
v -0.017994 -0.046554 0.039394
v -0.004212 -0.052535 0.012964
v 0.022605 -0.070944 0.013176
v 0.023084 -0.046169 0.016771
v 0.033083 -0.035686 0.024036
v 0.028871 -0.027262 0.037000
v 0.024946 -0.027796 0.049141
v -0.005770 -0.023570 0.059698
v 0.044110 -0.027262 -0.016024
v 0.046168 -0.028534 0.000000
v 0.044110 -0.027262 0.016024
v 0.011028 -0.052535 -0.008012
v 0.023084 -0.046169 -0.016771
v 0.033083 -0.035686 -0.024036
v -0.040893 -0.035686 0.000000
v -0.042835 -0.042346 -0.013622
v -0.013631 -0.052535 0.000000
v -0.026267 -0.027262 0.038891
v -0.037351 -0.028534 0.027137
v -0.045105 -0.027262 0.012964
v -0.012636 -0.035686 -0.038891
v -0.008817 -0.046169 -0.027137
v -0.004212 -0.052535 -0.012964
v -0.045105 -0.027262 -0.012964
v -0.037351 -0.028534 -0.027137
v -0.026267 -0.027262 -0.038891
v -0.001609 -0.027262 -0.046903
v 0.014267 -0.028534 -0.043909
v 0.028871 -0.027262 -0.037000
v 0.058703 0.015134 0.000688
v 0.051618 0.000000 0.016771
v 0.057476 -0.008212 0.014196
v 0.046714 -0.013631 -0.024036
v 0.051618 0.000000 -0.016771
v 0.050964 0.012289 -0.008336
v 0.008424 0.013631 0.051855
v 0.000000 0.000000 0.054274
v -0.008424 -0.013631 0.051855
v 0.037295 -0.013631 0.037000
v 0.038191 0.005748 0.045113
v 0.021865 0.025175 0.062474
v -0.046714 0.013631 0.024036
v -0.051618 0.000000 0.016771
v -0.051920 -0.013631 0.008012
v -0.023664 -0.013631 0.046903
v -0.031902 0.000000 0.043909
v -0.037295 0.013631 0.037000
v -0.037295 0.013631 -0.037000
v -0.031902 0.000000 -0.043909
v -0.023664 -0.013631 -0.046903
v -0.051920 -0.013631 -0.008012
v -0.051618 0.000000 -0.016771
v -0.068477 0.022101 -0.038049
v 0.023664 0.013631 -0.046903
v 0.031902 0.000000 -0.043909
v 0.037295 -0.013631 -0.037000
v -0.008424 -0.013631 -0.051855
v 0.000000 0.000000 -0.054274
v 0.008424 0.013631 -0.051855
v 0.045105 0.027262 0.012964
v 0.037351 0.028534 0.027137
v 0.026267 0.027262 0.038891
v -0.004886 0.031950 0.062044
v -0.014267 0.028534 0.043909
v -0.028871 0.027262 0.037000
v -0.044110 0.027262 0.016024
v -0.046168 0.028534 0.000000
v -0.044110 0.027262 -0.016024
v -0.028871 0.027262 -0.037000
v -0.014267 0.028534 -0.043909
v 0.006881 0.027692 -0.053068
v 0.026267 0.027262 -0.038891
v 0.037351 0.028534 -0.027137
v 0.045105 0.027262 -0.012964
v 0.008402 0.066542 -0.006090
v 0.008471 0.043292 0.023217
v 0.015265 0.033549 0.045851
v 0.040893 0.035686 0.000000
v 0.036922 0.058410 -0.002416
v 0.013631 0.052535 0.000000
v -0.011028 0.052535 0.008012
v -0.040794 0.060163 0.007346
v -0.033083 0.035686 0.024036
v -0.013821 0.064099 -0.024384
v -0.023084 0.046169 -0.016771
v -0.033083 0.035686 -0.024036
v 0.004212 0.052535 -0.012964
v 0.008817 0.046169 -0.027137
v 0.012636 0.035686 -0.038891
v 0.002865 -0.039274 0.037351
v 0.007501 -0.048545 0.023084
v 0.030343 -0.038843 0.035993
v 0.036408 -0.039273 -0.008817
v 0.057561 -0.037362 0.011937
v 0.024272 -0.048545 0.000000
v -0.034638 -0.039273 0.014267
v -0.019637 -0.048545 0.014267
v -0.024272 -0.039273 0.028534
v -0.024272 -0.039274 -0.028534
v -0.019637 -0.048545 -0.014267
v -0.034638 -0.039273 -0.014267
v 0.019637 -0.039274 -0.031901
v 0.007501 -0.048545 -0.023084
v 0.002865 -0.039274 -0.037351
v 0.054274 0.000000 0.000000
v 0.051409 -0.015001 0.008817
v 0.051409 -0.015001 -0.008817
v 0.016772 0.000000 0.051618
v 0.005206 -0.013032 0.058424
v 0.024272 -0.015001 0.046168
v -0.059908 0.012033 0.034650
v -0.046774 -0.015001 0.023084
v -0.038374 -0.004859 0.046957
v -0.043909 0.000000 -0.031902
v -0.036408 -0.015001 -0.037351
v -0.046774 -0.015001 -0.023084
v 0.016772 0.000000 -0.051618
v 0.024272 -0.015001 -0.046168
v 0.007501 -0.015001 -0.051618
v 0.036117 0.022494 0.042230
v 0.043909 -0.000000 0.031902
v 0.046774 0.015001 0.023084
v -0.031905 0.027550 0.054763
v -0.016772 -0.000000 0.051618
v -0.007501 0.015001 0.051618
v -0.078311 0.018422 -0.016334
v -0.054274 0.000000 0.000000
v -0.051409 0.015001 0.008817
v -0.007501 0.015001 -0.051618
v -0.016772 -0.000000 -0.051618
v -0.024272 0.015001 -0.046168
v 0.046774 0.015001 -0.023084
v 0.043909 0.000000 -0.031901
v 0.036408 0.015001 -0.037351
v 0.019636 0.048545 0.014267
v 0.031246 0.054502 0.040292
v 0.034638 0.039273 0.014267
v -0.010395 0.050676 0.028906
v -0.019637 0.039274 0.031901
v -0.002865 0.039274 0.037351
v -0.024272 0.048545 0.000000
v -0.036408 0.039274 -0.008817
v -0.036228 0.040475 0.008442
v -0.007501 0.048545 -0.023084
v -0.002865 0.039274 -0.037351
v -0.019637 0.039274 -0.031901
v 0.019068 0.046836 -0.013720
v 0.034638 0.039273 -0.014267
v 0.024272 0.039274 -0.028534
vn -0.231300 -0.959400 -0.161400
vn 0.420300 -0.883800 0.205200
vn -0.262800 -0.938800 0.222400
vn 0.705100 -0.462600 0.537300
vn 0.680800 -0.553900 0.479300
vn 0.854600 -0.117300 0.505800
vn -0.240300 -0.970600 0.007400
vn -0.080600 -0.965400 -0.248000
vn 0.169700 -0.903600 -0.393200
vn 0.966600 0.117000 -0.227800
vn -0.556300 -0.375000 0.741500
vn -0.353900 -0.239200 0.904100
vn -0.448500 0.067400 0.891200
vn -0.997600 0.068700 0.008600
vn -0.742200 -0.543700 0.391700
vn -0.915700 0.052100 0.398400
vn -0.276400 -0.447200 -0.850600
vn -0.491500 -0.503800 -0.710300
vn -0.441700 -0.243000 -0.863600
vn 0.723600 -0.447200 -0.525700
vn 0.523600 -0.503800 -0.687000
vn 0.684800 -0.243000 -0.687000
vn 0.682500 -0.309400 0.662100
vn -0.305600 -0.259000 0.916200
vn -0.917400 0.044900 -0.395300
vn -0.150200 -0.243000 -0.958300
vn 0.865000 -0.243000 -0.439000
vn 0.185900 0.584400 0.789900
vn 0.532300 0.541900 0.650300
vn 0.310600 0.453000 0.835600
vn -0.723600 0.447200 0.525700
vn -0.584800 0.717200 0.379000
vn -0.686800 0.471800 0.552800
vn -0.366700 0.723400 -0.584900
vn -0.474800 0.854100 -0.212300
vn -0.604200 0.665000 -0.439000
vn 0.502800 0.373400 -0.779500
vn 0.210300 0.411700 -0.886700
vn 0.299700 0.714000 -0.632700
vn 0.718700 0.679200 -0.148400
vn 0.724900 0.493600 -0.480400
vn 0.735400 0.677200 0.025300
vn -0.332000 -0.403500 0.852600
vn -0.438600 -0.494400 0.750400
vn 0.104700 -0.757600 0.644300
vn 0.071200 -0.781700 0.619600
vn 0.613100 -0.298300 0.731500
vn 0.691600 -0.566400 0.448200
vn 0.854500 -0.153100 0.496300
vn 0.564300 -0.696700 0.442800
vn 0.815200 -0.503800 -0.285700
vn 0.604200 -0.665000 -0.439000
vn 0.945600 -0.196800 -0.258800
vn 0.619200 -0.717500 -0.319000
vn 0.964500 -0.188500 0.184700
vn 0.425300 -0.850600 -0.309000
vn 0.612000 -0.754100 -0.238100
vn -0.829700 -0.551700 0.084900
vn -0.821300 -0.152200 -0.549700
vn -0.630900 -0.712900 0.306200
vn -0.408100 -0.895600 0.176900
vn -0.684800 -0.550100 0.477900
vn -0.676800 -0.575200 0.459500
vn -0.458100 -0.543900 0.703000
vn -0.230800 -0.665000 -0.710300
vn -0.162500 -0.850600 -0.500000
vn -0.449600 -0.727500 -0.518100
vn -0.298900 -0.900000 -0.317100
vn -0.688200 -0.525700 -0.500000
vn -0.582700 -0.352900 -0.732100
vn -0.744100 -0.542700 -0.389500
vn 0.353800 -0.727500 -0.587800
vn 0.140600 -0.890400 -0.432800
vn 0.262900 -0.525700 -0.809000
vn 0.059200 -0.727500 -0.683500
vn -0.019800 -0.503800 -0.863600
vn 0.997600 0.022200 -0.065600
vn 0.897300 0.081900 -0.433600
vn 0.942900 0.181100 0.279500
vn 0.988300 -0.137900 -0.064700
vn 0.937100 -0.335600 -0.095600
vn 0.954400 0.018700 -0.298000
vn 0.949600 -0.272400 -0.154900
vn -0.081600 -0.005900 0.996600
vn 0.011900 0.501800 0.864900
vn -0.069500 0.135300 0.988300
vn 0.252400 -0.111100 0.961200
vn 0.102900 0.122700 0.987100
vn 0.757500 -0.093400 0.646100
vn 0.602400 -0.077600 0.794400
vn -0.775600 0.619200 0.122300
vn -0.677100 0.430200 0.596900
vn -0.999300 -0.034500 0.015900
vn -0.850700 0.438100 0.290500
vn -0.857100 -0.395700 0.329800
vn -0.299700 0.132700 0.944700
vn -0.356100 -0.031600 0.933900
vn -0.408900 0.224600 -0.884500
vn -0.610000 0.300800 -0.733100
vn -0.587800 0.000000 -0.809000
vn -0.674400 -0.290800 -0.678700
vn -0.677200 -0.272400 -0.683500
vn -0.812300 -0.505700 -0.290600
vn -0.859300 -0.272400 -0.432800
vn 0.441700 0.243000 -0.863600
vn 0.205900 0.101500 -0.973300
vn 0.587800 0.000000 -0.809000
vn 0.309000 -0.008900 -0.951000
vn 0.440700 -0.272400 -0.855300
vn 0.000000 0.000000 -1.000000
vn 0.146100 -0.272400 -0.951000
vn 0.725000 0.555500 0.407100
vn 0.863300 -0.012000 0.504500
vn 0.837600 0.414100 0.356300
vn 0.864700 0.263900 0.427400
vn 0.723700 0.548300 0.419000
vn -0.480600 0.558600 0.675900
vn -0.243600 -0.112400 0.963300
vn -0.336900 0.737800 0.584900
vn -0.130100 -0.045600 0.990400
vn -0.231400 0.368800 0.900200
vn -0.990400 0.127700 0.052900
vn -0.947300 -0.268800 0.174400
vn -0.701300 0.700700 0.131100
vn -0.866400 0.260500 0.425900
vn -0.818900 0.495100 0.290300
vn -0.209700 0.195400 -0.958000
vn -0.309000 0.008900 -0.951000
vn -0.327000 0.526300 -0.784900
vn -0.440700 0.272400 -0.855300
vn -0.523600 0.503800 -0.687000
vn 0.870200 0.271900 -0.410900
vn 0.809000 0.008900 -0.587800
vn 0.688200 0.525700 -0.500000
vn 0.677200 0.272400 -0.683500
vn 0.491500 0.503800 -0.710300
vn 0.180500 0.743200 -0.644300
vn 0.381000 0.815400 -0.435900
vn -0.165300 0.778600 -0.605300
vn 0.020800 0.881800 0.471100
vn 0.146700 0.944700 0.293100
vn 0.367500 0.764600 0.529500
vn 0.533200 0.840400 -0.097000
vn 0.790800 0.571200 0.219900
vn -0.210700 0.976900 0.035800
vn -0.699700 0.680200 -0.218400
vn -0.005800 0.772000 0.635500
vn -0.389600 0.548400 0.739900
vn -0.021000 0.845100 0.534100
vn -0.173200 0.761700 -0.624400
vn -0.645600 0.647800 -0.404300
vn -0.480400 0.800500 -0.358300
vn -0.667400 0.725200 -0.169400
vn -0.930200 0.359800 -0.072200
vn 0.361200 0.894900 -0.261900
vn 0.188200 0.859800 -0.474700
vn 0.008100 0.605000 -0.796100
vn -0.086600 0.774500 -0.626600
vn -0.353800 0.727500 -0.587800
vn 0.230700 0.866600 -0.442400
vn 0.654200 0.598400 -0.462500
vn 0.442700 0.749800 -0.491700
s 1
f 1//1 16//2 15//3
f 2//4 18//5 24//6
f 1//1 15//3 30//7
f 1//1 30//7 36//8
f 1//1 36//8 25//9
f 2//4 24//6 45//10
f 3//11 21//12 51//13
f 4//14 33//15 57//16
f 5//17 39//18 63//19
f 6//20 42//21 69//22
f 2//4 45//10 52//23
f 3//11 51//13 58//24
f 4//14 57//16 64//25
f 5//17 63//19 70//26
f 6//20 69//22 46//27
f 7//28 75//29 90//30
f 8//31 78//32 96//33
f 9//34 81//35 99//36
f 10//37 84//38 102//39
f 11//40 87//41 91//42
f 13//43 21//12 3//11
f 14//44 103//45 13//43
f 15//3 104//46 14//44
f 13//43 103//45 21//12
f 103//45 20//47 21//12
f 14//44 104//46 103//45
f 104//46 105//48 103//45
f 103//45 105//48 20//47
f 105//48 19//49 20//47
f 15//3 16//2 104//46
f 16//2 17//50 104//46
f 104//46 17//50 105//48
f 17//50 18//5 105//48
f 105//48 18//5 19//49
f 18//5 2//4 19//49
f 22//51 27//52 6//20
f 23//53 106//54 22//51
f 24//6 107//55 23//53
f 22//51 106//54 27//52
f 106//54 26//56 27//52
f 23//53 107//55 106//54
f 107//55 108//57 106//54
f 106//54 108//57 26//56
f 108//57 25//9 26//56
f 24//6 18//5 107//55
f 18//5 17//50 107//55
f 107//55 17//50 108//57
f 17//50 16//2 108//57
f 108//57 16//2 25//9
f 16//2 1//1 25//9
f 28//58 33//15 4//14
f 29//59 109//60 28//58
f 30//7 110//61 29//59
f 28//58 109//60 33//15
f 109//60 32//62 33//15
f 29//59 110//61 109//60
f 110//61 111//63 109//60
f 109//60 111//63 32//62
f 111//63 31//64 32//62
f 30//7 15//3 110//61
f 15//3 14//44 110//61
f 110//61 14//44 111//63
f 14//44 13//43 111//63
f 111//63 13//43 31//64
f 13//43 3//11 31//64
f 34//65 39//18 5//17
f 35//66 112//67 34//65
f 36//8 113//68 35//66
f 34//65 112//67 39//18
f 112//67 38//69 39//18
f 35//66 113//68 112//67
f 113//68 114//70 112//67
f 112//67 114//70 38//69
f 114//70 37//71 38//69
f 36//8 30//7 113//68
f 30//7 29//59 113//68
f 113//68 29//59 114//70
f 29//59 28//58 114//70
f 114//70 28//58 37//71
f 28//58 4//14 37//71
f 27//52 42//21 6//20
f 26//56 115//72 27//52
f 25//9 116//73 26//56
f 27//52 115//72 42//21
f 115//72 41//74 42//21
f 26//56 116//73 115//72
f 116//73 117//75 115//72
f 115//72 117//75 41//74
f 117//75 40//76 41//74
f 25//9 36//8 116//73
f 36//8 35//66 116//73
f 116//73 35//66 117//75
f 35//66 34//65 117//75
f 117//75 34//65 40//76
f 34//65 5//17 40//76
f 43//77 48//78 11//40
f 44//79 118//80 43//77
f 45//10 119//81 44//79
f 43//77 118//80 48//78
f 118//80 47//82 48//78
f 44//79 119//81 118//80
f 119//81 120//83 118//80
f 118//80 120//83 47//82
f 120//83 46//27 47//82
f 45//10 24//6 119//81
f 24//6 23//53 119//81
f 119//81 23//53 120//83
f 23//53 22//51 120//83
f 120//83 22//51 46//27
f 22//51 6//20 46//27
f 49//84 54//85 7//28
f 50//86 121//87 49//84
f 51//13 122//88 50//86
f 49//84 121//87 54//85
f 121//87 53//89 54//85
f 50//86 122//88 121//87
f 122//88 123//90 121//87
f 121//87 123//90 53//89
f 123//90 52//23 53//89
f 51//13 21//12 122//88
f 21//12 20//47 122//88
f 122//88 20//47 123//90
f 20//47 19//49 123//90
f 123//90 19//49 52//23
f 19//49 2//4 52//23
f 55//91 60//92 8//31
f 56//93 124//94 55//91
f 57//16 125//95 56//93
f 55//91 124//94 60//92
f 124//94 59//96 60//92
f 56//93 125//95 124//94
f 125//95 126//97 124//94
f 124//94 126//97 59//96
f 126//97 58//24 59//96
f 57//16 33//15 125//95
f 33//15 32//62 125//95
f 125//95 32//62 126//97
f 32//62 31//64 126//97
f 126//97 31//64 58//24
f 31//64 3//11 58//24
f 61//98 66//99 9//34
f 62//100 127//101 61//98
f 63//19 128//102 62//100
f 61//98 127//101 66//99
f 127//101 65//103 66//99
f 62//100 128//102 127//101
f 128//102 129//104 127//101
f 127//101 129//104 65//103
f 129//104 64//25 65//103
f 63//19 39//18 128//102
f 39//18 38//69 128//102
f 128//102 38//69 129//104
f 38//69 37//71 129//104
f 129//104 37//71 64//25
f 37//71 4//14 64//25
f 67//105 72//106 10//37
f 68//107 130//108 67//105
f 69//22 131//109 68//107
f 67//105 130//108 72//106
f 130//108 71//110 72//106
f 68//107 131//109 130//108
f 131//109 132//111 130//108
f 130//108 132//111 71//110
f 132//111 70//26 71//110
f 69//22 42//21 131//109
f 42//21 41//74 131//109
f 131//109 41//74 132//111
f 41//74 40//76 132//111
f 132//111 40//76 70//26
f 40//76 5//17 70//26
f 54//85 75//29 7//28
f 53//89 133//112 54//85
f 52//23 134//113 53//89
f 54//85 133//112 75//29
f 133//112 74//114 75//29
f 53//89 134//113 133//112
f 134//113 135//115 133//112
f 133//112 135//115 74//114
f 135//115 73//116 74//114
f 52//23 45//10 134//113
f 45//10 44//79 134//113
f 134//113 44//79 135//115
f 44//79 43//77 135//115
f 135//115 43//77 73//116
f 43//77 11//40 73//116
f 60//92 78//32 8//31
f 59//96 136//117 60//92
f 58//24 137//118 59//96
f 60//92 136//117 78//32
f 136//117 77//119 78//32
f 59//96 137//118 136//117
f 137//118 138//120 136//117
f 136//117 138//120 77//119
f 138//120 76//121 77//119
f 58//24 51//13 137//118
f 51//13 50//86 137//118
f 137//118 50//86 138//120
f 50//86 49//84 138//120
f 138//120 49//84 76//121
f 49//84 7//28 76//121
f 66//99 81//35 9//34
f 65//103 139//122 66//99
f 64//25 140//123 65//103
f 66//99 139//122 81//35
f 139//122 80//124 81//35
f 65//103 140//123 139//122
f 140//123 141//125 139//122
f 139//122 141//125 80//124
f 141//125 79//126 80//124
f 64//25 57//16 140//123
f 57//16 56//93 140//123
f 140//123 56//93 141//125
f 56//93 55//91 141//125
f 141//125 55//91 79//126
f 55//91 8//31 79//126
f 72//106 84//38 10//37
f 71//110 142//127 72//106
f 70//26 143//128 71//110
f 72//106 142//127 84//38
f 142//127 83//129 84//38
f 71//110 143//128 142//127
f 143//128 144//130 142//127
f 142//127 144//130 83//129
f 144//130 82//131 83//129
f 70//26 63//19 143//128
f 63//19 62//100 143//128
f 143//128 62//100 144//130
f 62//100 61//98 144//130
f 144//130 61//98 82//131
f 61//98 9//34 82//131
f 48//78 87//41 11//40
f 47//82 145//132 48//78
f 46//27 146//133 47//82
f 48//78 145//132 87//41
f 145//132 86//134 87//41
f 47//82 146//133 145//132
f 146//133 147//135 145//132
f 145//132 147//135 86//134
f 147//135 85//136 86//134
f 46//27 69//22 146//133
f 69//22 68//107 146//133
f 146//133 68//107 147//135
f 68//107 67//105 147//135
f 147//135 67//105 85//136
f 67//105 10//37 85//136
f 88//137 93//138 12//139
f 89//140 148//141 88//137
f 90//30 149//142 89//140
f 88//137 148//141 93//138
f 148//141 92//143 93//138
f 89//140 149//142 148//141
f 149//142 150//144 148//141
f 148//141 150//144 92//143
f 150//144 91//42 92//143
f 90//30 75//29 149//142
f 75//29 74//114 149//142
f 149//142 74//114 150//144
f 74//114 73//116 150//144
f 150//144 73//116 91//42
f 73//116 11//40 91//42
f 94//145 88//137 12//139
f 95//146 151//147 94//145
f 96//33 152//148 95//146
f 94//145 151//147 88//137
f 151//147 89//140 88//137
f 95//146 152//148 151//147
f 152//148 153//149 151//147
f 151//147 153//149 89//140
f 153//149 90//30 89//140
f 96//33 78//32 152//148
f 78//32 77//119 152//148
f 152//148 77//119 153//149
f 77//119 76//121 153//149
f 153//149 76//121 90//30
f 76//121 7//28 90//30
f 97//150 94//145 12//139
f 98//151 154//152 97//150
f 99//36 155//153 98//151
f 97//150 154//152 94//145
f 154//152 95//146 94//145
f 98//151 155//153 154//152
f 155//153 156//154 154//152
f 154//152 156//154 95//146
f 156//154 96//33 95//146
f 99//36 81//35 155//153
f 81//35 80//124 155//153
f 155//153 80//124 156//154
f 80//124 79//126 156//154
f 156//154 79//126 96//33
f 79//126 8//31 96//33
f 100//155 97//150 12//139
f 101//156 157//157 100//155
f 102//39 158//158 101//156
f 100//155 157//157 97//150
f 157//157 98//151 97//150
f 101//156 158//158 157//157
f 158//158 159//159 157//157
f 157//157 159//159 98//151
f 159//159 99//36 98//151
f 102//39 84//38 158//158
f 84//38 83//129 158//158
f 158//158 83//129 159//159
f 83//129 82//131 159//159
f 159//159 82//131 99//36
f 82//131 9//34 99//36
f 93//138 100//155 12//139
f 92//143 160//160 93//138
f 91//42 161//161 92//143
f 93//138 160//160 100//155
f 160//160 101//156 100//155
f 92//143 161//161 160//160
f 161//161 162//162 160//160
f 160//160 162//162 101//156
f 162//162 102//39 101//156
f 91//42 87//41 161//161
f 87//41 86//134 161//161
f 161//161 86//134 162//162
f 86//134 85//136 162//162
f 162//162 85//136 102//39
f 85//136 10//37 102//39
