# Blender v2.72 (sub 0) OBJ File: 'function_explosion.blend'
# www.blender.org
o Icosphere
v 0.000000 -0.124213 0.000000
v 0.089882 -0.055551 0.065302
v -0.034331 -0.055551 0.105662
v -0.170381 -0.054517 -0.014108
v -0.034331 -0.055551 -0.105662
v 0.089882 -0.055551 -0.065302
v 0.034331 0.055551 0.105662
v -0.089882 0.055551 0.065302
v -0.089882 0.055551 -0.065302
v 0.034331 0.055551 -0.105662
v 0.118680 0.065214 -0.003078
v 0.000000 0.124213 0.000000
v -0.028920 -0.081673 0.089007
v -0.029356 -0.106048 0.074363
v -0.009640 -0.120232 0.029669
v 0.048474 -0.161811 0.002572
v 0.052831 -0.105663 0.038383
v 0.075714 -0.081673 0.055009
v 0.066074 -0.062393 0.084678
v 0.043331 -0.064565 0.105722
v -0.007843 -0.058700 0.120138
v 0.100952 -0.062392 -0.036672
v 0.105662 -0.065303 0.000000
v 0.143587 -0.058212 0.040935
v 0.025238 -0.120232 -0.018336
v 0.052831 -0.105663 -0.038383
v 0.075714 -0.081673 -0.055009
v -0.093587 -0.081672 0.000000
v -0.079604 -0.101840 -0.013622
v -0.031196 -0.120232 0.000000
v -0.060116 -0.062393 0.089007
v -0.086379 -0.067749 0.072720
v -0.103228 -0.062392 0.029669
v -0.028920 -0.081673 -0.089007
v -0.020179 -0.105663 -0.062106
v -0.009640 -0.120232 -0.029669
v -0.103228 -0.062392 -0.029669
v -0.085482 -0.065303 -0.062106
v -0.060116 -0.062393 -0.089007
v -0.003682 -0.062393 -0.107343
v 0.032652 -0.065304 -0.100490
v 0.066074 -0.062393 -0.084678
v 0.125609 0.032699 0.011012
v 0.118134 0.000000 0.038383
v 0.117672 -0.025778 0.045169
v 0.106910 -0.031196 -0.055009
v 0.118134 0.000000 -0.038383
v 0.117869 0.029854 -0.018660
v 0.019280 0.031196 0.118676
v 0.000000 0.000000 0.124213
v -0.019280 -0.031196 0.118676
v 0.085354 -0.031196 0.084678
v 0.079300 0.005748 0.101695
v 0.069343 0.070417 0.144284
v -0.152843 0.062554 0.032871
v -0.118134 0.000000 0.038383
v -0.118826 -0.031196 0.018336
v -0.086715 -0.041413 0.147093
v -0.073011 0.000000 0.100491
v -0.085354 0.031196 0.084678
v -0.085354 0.031196 -0.084678
v -0.073011 0.000000 -0.100491
v -0.054158 -0.031196 -0.107344
v -0.118826 -0.031196 -0.018336
v -0.118134 0.000000 -0.038383
v -0.128673 0.039666 -0.069022
v 0.054158 0.031196 -0.107344
v 0.073011 0.000000 -0.100491
v 0.085354 -0.031196 -0.084678
v -0.019280 -0.031196 -0.118676
v 0.000000 0.000000 -0.124213
v 0.019280 0.031196 -0.118676
v 0.103227 0.062392 0.029669
v 0.085482 0.065303 0.062106
v 0.050118 0.054960 0.078940
v -0.002813 0.067081 0.122484
v -0.025394 0.058800 0.091076
v -0.093953 0.110576 0.082534
v -0.100952 0.062392 0.036672
v -0.105662 0.065303 0.000000
v -0.100952 0.062392 -0.036672
v -0.066074 0.062393 -0.084678
v -0.032652 0.065304 -0.100490
v 0.008954 0.062822 -0.113508
v 0.060116 0.062393 -0.089007
v 0.085482 0.065303 -0.062106
v 0.103227 0.062392 -0.029669
v 0.014502 0.168489 0.000660
v 0.019833 0.102786 0.058186
v 0.031548 0.079535 0.095967
v 0.093587 0.081672 0.000000
v 0.073691 0.117903 -0.002416
v 0.043088 0.137549 -0.006120
v -0.025238 0.120232 0.018336
v -0.063054 0.108112 0.031588
v -0.075714 0.081673 0.055009
v -0.028031 0.131796 -0.034708
v -0.052831 0.105663 -0.038383
v -0.075714 0.081673 -0.055009
v 0.009640 0.120232 -0.029669
v 0.020179 0.105663 -0.062106
v 0.028920 0.081673 -0.089007
v 0.010076 -0.103467 0.131940
v 0.017166 -0.111100 0.052830
v 0.081859 -0.093168 0.070888
v 0.128378 -0.099423 -0.046908
v 0.104477 -0.087970 0.023299
v 0.055550 -0.111100 0.000000
v -0.057084 -0.087047 0.042297
v -0.072247 -0.135292 0.028563
v -0.044152 -0.089956 0.052194
v -0.055549 -0.089882 -0.065302
v -0.044940 -0.111100 -0.032651
v -0.079272 -0.089882 -0.032651
v 0.044941 -0.089882 -0.073010
v 0.017166 -0.111100 -0.052831
v 0.006557 -0.089882 -0.085482
v 0.124213 0.000000 0.000000
v 0.117656 -0.034332 0.020179
v 0.117656 -0.034332 -0.020179
v 0.038384 0.000000 0.118134
v -0.001337 -0.043744 0.109559
v 0.091328 -0.049040 0.151591
v -0.116489 0.012033 0.075759
v -0.147694 -0.033872 0.069810
v -0.085290 -0.024190 0.095088
v -0.100491 0.000000 -0.073010
v -0.083325 -0.034332 -0.085482
v -0.107047 -0.034332 -0.052831
v 0.038384 0.000000 -0.118134
v 0.055550 -0.034332 -0.105662
v 0.017166 -0.034332 -0.118134
v 0.083034 0.041825 0.090361
v 0.100491 -0.000000 0.073010
v 0.150102 0.046409 0.068176
v -0.070768 0.052999 0.123428
v -0.038384 -0.000000 0.118134
v -0.019076 0.044134 0.120611
v -0.144558 0.037752 -0.027696
v -0.099141 -0.001090 0.011618
v -0.117656 0.034332 0.020179
v -0.017166 0.034332 -0.118134
v -0.038384 -0.000000 -0.118134
v -0.055550 0.034332 -0.105662
v 0.107047 0.034332 -0.052831
v 0.100491 0.000000 -0.073010
v 0.083325 0.034332 -0.085482
v 0.044940 0.111100 0.032651
v 0.062524 0.105110 0.077061
v 0.073909 0.142582 0.021979
v -0.020061 0.113231 0.058653
v -0.044941 0.089882 0.073010
v -0.004600 0.131183 0.102942
v -0.071102 0.126108 -0.002872
v -0.083324 0.089882 -0.020179
v -0.083144 0.091084 0.019804
v -0.017166 0.111100 -0.052830
v -0.006557 0.089882 -0.085482
v -0.044941 0.089882 -0.073010
v 0.044372 0.109391 -0.032104
v 0.100926 0.138256 -0.086886
v 0.055549 0.089882 -0.065302
vn -0.294500 -0.939800 -0.173400
vn 0.385600 -0.906000 -0.174400
vn -0.077100 -0.964400 0.253100
vn 0.577700 -0.382900 0.720800
vn 0.809300 -0.517300 0.278100
vn 0.968800 -0.140800 0.204000
vn -0.085200 -0.977100 -0.194600
vn -0.080600 -0.965400 -0.248000
vn 0.138300 -0.848000 -0.511700
vn 0.898600 0.144700 0.414300
vn -0.170000 -0.646500 0.743700
vn -0.149700 0.079100 0.985500
vn 0.166300 -0.165200 0.972100
vn -0.978800 -0.074000 -0.190900
vn -0.587900 -0.769700 0.248700
vn -0.951300 0.306200 -0.033900
vn -0.276400 -0.447200 -0.850600
vn -0.491500 -0.503800 -0.710300
vn -0.441700 -0.243000 -0.863600
vn 0.723600 -0.447200 -0.525700
vn 0.523600 -0.503800 -0.687000
vn 0.684800 -0.243000 -0.687000
vn 0.908400 -0.244000 0.339600
vn -0.563600 -0.232300 0.792700
vn -0.879200 0.365200 -0.305800
vn -0.150200 -0.243000 -0.958300
vn 0.865000 -0.243000 -0.439000
vn 0.120300 0.782600 0.610700
vn 0.527700 0.626500 0.573500
vn 0.578000 0.392900 0.715200
vn -0.815200 0.452400 0.361500
vn -0.524600 0.846100 0.094200
vn -0.678700 0.731800 -0.062100
vn -0.512000 0.635900 -0.577400
vn -0.609800 0.752500 -0.248800
vn -0.604200 0.665000 -0.439000
vn 0.363800 0.421300 -0.830700
vn 0.076200 0.478700 -0.874600
vn 0.263300 0.686600 -0.677600
vn 0.830300 0.552300 -0.074700
vn 0.913100 0.290300 -0.286100
vn 0.852500 0.520400 0.049700
vn -0.662700 -0.465600 0.586500
vn -0.525300 -0.690100 0.497800
vn -0.025500 -0.515400 0.856500
vn 0.083900 -0.921900 0.378100
vn 0.311400 -0.488000 0.815400
vn 0.910000 -0.385000 0.153800
vn 0.779400 -0.428500 0.457000
vn 0.508000 -0.793100 0.336000
vn 0.891200 -0.020800 -0.453200
vn 0.417000 -0.522600 -0.743600
vn 0.985700 -0.072400 -0.152100
vn 0.807000 -0.345800 -0.478700
vn 0.602300 -0.767100 0.220900
vn 0.244500 -0.895500 -0.371900
vn 0.618700 -0.774200 -0.133300
vn -0.588000 -0.799200 0.125000
vn -0.709700 -0.680800 -0.180900
vn -0.675400 -0.565600 0.473200
vn -0.629700 -0.752100 0.194300
vn -0.406100 -0.762700 0.503200
vn -0.685800 -0.408200 0.602500
vn -0.379400 -0.766100 0.518800
vn -0.230800 -0.665000 -0.710300
vn -0.162500 -0.850600 -0.500000
vn -0.449600 -0.727500 -0.518100
vn -0.336300 -0.894200 -0.295400
vn -0.688200 -0.525700 -0.500000
vn -0.650800 -0.669400 -0.358100
vn -0.657900 -0.562200 -0.501100
vn 0.353800 -0.727500 -0.587800
vn 0.140600 -0.890400 -0.432800
vn 0.262900 -0.525700 -0.809000
vn 0.059200 -0.727500 -0.683500
vn -0.019800 -0.503800 -0.863600
vn 0.981100 0.124900 -0.147600
vn 0.947600 0.160500 -0.276100
vn 0.953800 -0.246800 0.171500
vn 0.997800 -0.058600 -0.031100
vn 0.977700 0.065900 -0.199200
vn 0.952500 0.007800 -0.304400
vn 0.949600 -0.272400 -0.154900
vn -0.045900 0.099400 0.994000
vn 0.300900 0.625400 0.719900
vn 0.044200 -0.088100 0.995100
vn 0.004700 0.022200 0.999700
vn 0.214100 0.065300 0.974600
vn 0.787500 0.081800 0.610900
vn 0.555000 -0.281900 0.782600
vn -0.828000 0.517900 -0.214700
vn -0.745000 0.135700 0.653100
vn -0.923000 0.049600 -0.381500
vn -0.694500 0.212000 0.687500
vn -0.935900 -0.185600 0.299400
vn -0.639000 0.206800 0.740800
vn -0.771700 -0.114700 0.625500
vn -0.527400 0.235800 -0.816200
vn -0.722600 0.270400 -0.636200
vn -0.587800 0.000000 -0.809000
vn -0.735600 -0.182000 -0.652500
vn -0.677200 -0.272400 -0.683500
vn -0.935700 -0.329400 -0.126100
vn -0.859300 -0.272400 -0.432800
vn 0.441700 0.243000 -0.863600
vn 0.174500 0.188300 -0.966500
vn 0.587800 0.000000 -0.809000
vn 0.309000 -0.008900 -0.951000
vn 0.440700 -0.272400 -0.855300
vn 0.000000 0.000000 -1.000000
vn 0.146100 -0.272400 -0.951000
vn 0.664800 0.507300 0.548300
vn 0.734300 -0.215400 0.643700
vn 0.508700 0.605500 0.612000
vn 0.890700 0.266300 0.368300
vn 0.729800 0.671300 0.129500
vn -0.378000 0.247400 0.892100
vn -0.102900 0.107300 0.988900
vn -0.303300 0.602700 0.738100
vn -0.136700 0.314900 0.939200
vn -0.157700 0.270700 0.949600
vn -0.988000 0.149700 0.036500
vn -0.995300 -0.022600 -0.094100
vn -0.762700 0.641300 0.083300
vn -0.939600 -0.011300 -0.342100
vn -0.561200 0.821200 0.102800
vn -0.175400 0.235000 -0.956000
vn -0.309000 0.008900 -0.951000
vn -0.296600 0.526100 -0.797000
vn -0.440700 0.272400 -0.855300
vn -0.523600 0.503800 -0.687000
vn 0.864000 0.272300 -0.423400
vn 0.809000 0.008900 -0.587800
vn 0.699800 0.159500 -0.696200
vn 0.677200 0.272400 -0.683500
vn 0.491500 0.503800 -0.710300
vn -0.014400 0.954600 -0.297500
vn 0.447900 0.843100 -0.297600
vn -0.280500 0.823200 -0.493500
vn 0.268100 0.890700 0.367100
vn -0.032300 0.907800 0.418100
vn 0.332700 0.603900 0.724300
vn 0.502300 0.853300 -0.139700
vn 0.155100 0.983600 -0.091500
vn -0.366400 0.917000 0.157800
vn -0.476000 0.765500 0.432900
vn -0.312100 0.927100 0.207300
vn -0.260100 0.784700 0.562700
vn -0.023800 0.872600 0.487800
vn -0.091700 0.904500 -0.416500
vn -0.499100 0.673200 -0.545500
vn -0.579800 0.814800 -0.004700
vn -0.762100 0.598800 -0.245900
vn -0.790800 0.574200 0.212000
vn 0.118100 0.919000 -0.376200
vn 0.173700 0.854800 -0.489000
vn -0.086300 0.796300 -0.598700
vn -0.072500 0.752400 -0.654700
vn -0.353800 0.727500 -0.587800
vn 0.000200 0.890300 -0.455300
vn 0.377900 0.650300 -0.658900
vn 0.035100 0.576500 -0.816300
s 1
f 1//1 16//2 15//3
f 2//4 18//5 24//6
f 1//1 15//3 30//7
f 1//1 30//7 36//8
f 1//1 36//8 25//9
f 2//4 24//6 45//10
f 3//11 21//12 51//13
f 4//14 33//15 57//16
f 5//17 39//18 63//19
f 6//20 42//21 69//22
f 2//4 45//10 52//23
f 3//11 51//13 58//24
f 4//14 57//16 64//25
f 5//17 63//19 70//26
f 6//20 69//22 46//27
f 7//28 75//29 90//30
f 8//31 78//32 96//33
f 9//34 81//35 99//36
f 10//37 84//38 102//39
f 11//40 87//41 91//42
f 13//43 21//12 3//11
f 14//44 103//45 13//43
f 15//3 104//46 14//44
f 13//43 103//45 21//12
f 103//45 20//47 21//12
f 14//44 104//46 103//45
f 104//46 105//48 103//45
f 103//45 105//48 20//47
f 105//48 19//49 20//47
f 15//3 16//2 104//46
f 16//2 17//50 104//46
f 104//46 17//50 105//48
f 17//50 18//5 105//48
f 105//48 18//5 19//49
f 18//5 2//4 19//49
f 22//51 27//52 6//20
f 23//53 106//54 22//51
f 24//6 107//55 23//53
f 22//51 106//54 27//52
f 106//54 26//56 27//52
f 23//53 107//55 106//54
f 107//55 108//57 106//54
f 106//54 108//57 26//56
f 108//57 25//9 26//56
f 24//6 18//5 107//55
f 18//5 17//50 107//55
f 107//55 17//50 108//57
f 17//50 16//2 108//57
f 108//57 16//2 25//9
f 16//2 1//1 25//9
f 28//58 33//15 4//14
f 29//59 109//60 28//58
f 30//7 110//61 29//59
f 28//58 109//60 33//15
f 109//60 32//62 33//15
f 29//59 110//61 109//60
f 110//61 111//63 109//60
f 109//60 111//63 32//62
f 111//63 31//64 32//62
f 30//7 15//3 110//61
f 15//3 14//44 110//61
f 110//61 14//44 111//63
f 14//44 13//43 111//63
f 111//63 13//43 31//64
f 13//43 3//11 31//64
f 34//65 39//18 5//17
f 35//66 112//67 34//65
f 36//8 113//68 35//66
f 34//65 112//67 39//18
f 112//67 38//69 39//18
f 35//66 113//68 112//67
f 113//68 114//70 112//67
f 112//67 114//70 38//69
f 114//70 37//71 38//69
f 36//8 30//7 113//68
f 30//7 29//59 113//68
f 113//68 29//59 114//70
f 29//59 28//58 114//70
f 114//70 28//58 37//71
f 28//58 4//14 37//71
f 27//52 42//21 6//20
f 26//56 115//72 27//52
f 25//9 116//73 26//56
f 27//52 115//72 42//21
f 115//72 41//74 42//21
f 26//56 116//73 115//72
f 116//73 117//75 115//72
f 115//72 117//75 41//74
f 117//75 40//76 41//74
f 25//9 36//8 116//73
f 36//8 35//66 116//73
f 116//73 35//66 117//75
f 35//66 34//65 117//75
f 117//75 34//65 40//76
f 34//65 5//17 40//76
f 43//77 48//78 11//40
f 44//79 118//80 43//77
f 45//10 119//81 44//79
f 43//77 118//80 48//78
f 118//80 47//82 48//78
f 44//79 119//81 118//80
f 119//81 120//83 118//80
f 118//80 120//83 47//82
f 120//83 46//27 47//82
f 45//10 24//6 119//81
f 24//6 23//53 119//81
f 119//81 23//53 120//83
f 23//53 22//51 120//83
f 120//83 22//51 46//27
f 22//51 6//20 46//27
f 49//84 54//85 7//28
f 50//86 121//87 49//84
f 51//13 122//88 50//86
f 49//84 121//87 54//85
f 121//87 53//89 54//85
f 50//86 122//88 121//87
f 122//88 123//90 121//87
f 121//87 123//90 53//89
f 123//90 52//23 53//89
f 51//13 21//12 122//88
f 21//12 20//47 122//88
f 122//88 20//47 123//90
f 20//47 19//49 123//90
f 123//90 19//49 52//23
f 19//49 2//4 52//23
f 55//91 60//92 8//31
f 56//93 124//94 55//91
f 57//16 125//95 56//93
f 55//91 124//94 60//92
f 124//94 59//96 60//92
f 56//93 125//95 124//94
f 125//95 126//97 124//94
f 124//94 126//97 59//96
f 126//97 58//24 59//96
f 57//16 33//15 125//95
f 33//15 32//62 125//95
f 125//95 32//62 126//97
f 32//62 31//64 126//97
f 126//97 31//64 58//24
f 31//64 3//11 58//24
f 61//98 66//99 9//34
f 62//100 127//101 61//98
f 63//19 128//102 62//100
f 61//98 127//101 66//99
f 127//101 65//103 66//99
f 62//100 128//102 127//101
f 128//102 129//104 127//101
f 127//101 129//104 65//103
f 129//104 64//25 65//103
f 63//19 39//18 128//102
f 39//18 38//69 128//102
f 128//102 38//69 129//104
f 38//69 37//71 129//104
f 129//104 37//71 64//25
f 37//71 4//14 64//25
f 67//105 72//106 10//37
f 68//107 130//108 67//105
f 69//22 131//109 68//107
f 67//105 130//108 72//106
f 130//108 71//110 72//106
f 68//107 131//109 130//108
f 131//109 132//111 130//108
f 130//108 132//111 71//110
f 132//111 70//26 71//110
f 69//22 42//21 131//109
f 42//21 41//74 131//109
f 131//109 41//74 132//111
f 41//74 40//76 132//111
f 132//111 40//76 70//26
f 40//76 5//17 70//26
f 54//85 75//29 7//28
f 53//89 133//112 54//85
f 52//23 134//113 53//89
f 54//85 133//112 75//29
f 133//112 74//114 75//29
f 53//89 134//113 133//112
f 134//113 135//115 133//112
f 133//112 135//115 74//114
f 135//115 73//116 74//114
f 52//23 45//10 134//113
f 45//10 44//79 134//113
f 134//113 44//79 135//115
f 44//79 43//77 135//115
f 135//115 43//77 73//116
f 43//77 11//40 73//116
f 60//92 78//32 8//31
f 59//96 136//117 60//92
f 58//24 137//118 59//96
f 60//92 136//117 78//32
f 136//117 77//119 78//32
f 59//96 137//118 136//117
f 137//118 138//120 136//117
f 136//117 138//120 77//119
f 138//120 76//121 77//119
f 58//24 51//13 137//118
f 51//13 50//86 137//118
f 137//118 50//86 138//120
f 50//86 49//84 138//120
f 138//120 49//84 76//121
f 49//84 7//28 76//121
f 66//99 81//35 9//34
f 65//103 139//122 66//99
f 64//25 140//123 65//103
f 66//99 139//122 81//35
f 139//122 80//124 81//35
f 65//103 140//123 139//122
f 140//123 141//125 139//122
f 139//122 141//125 80//124
f 141//125 79//126 80//124
f 64//25 57//16 140//123
f 57//16 56//93 140//123
f 140//123 56//93 141//125
f 56//93 55//91 141//125
f 141//125 55//91 79//126
f 55//91 8//31 79//126
f 72//106 84//38 10//37
f 71//110 142//127 72//106
f 70//26 143//128 71//110
f 72//106 142//127 84//38
f 142//127 83//129 84//38
f 71//110 143//128 142//127
f 143//128 144//130 142//127
f 142//127 144//130 83//129
f 144//130 82//131 83//129
f 70//26 63//19 143//128
f 63//19 62//100 143//128
f 143//128 62//100 144//130
f 62//100 61//98 144//130
f 144//130 61//98 82//131
f 61//98 9//34 82//131
f 48//78 87//41 11//40
f 47//82 145//132 48//78
f 46//27 146//133 47//82
f 48//78 145//132 87//41
f 145//132 86//134 87//41
f 47//82 146//133 145//132
f 146//133 147//135 145//132
f 145//132 147//135 86//134
f 147//135 85//136 86//134
f 46//27 69//22 146//133
f 69//22 68//107 146//133
f 146//133 68//107 147//135
f 68//107 67//105 147//135
f 147//135 67//105 85//136
f 67//105 10//37 85//136
f 88//137 93//138 12//139
f 89//140 148//141 88//137
f 90//30 149//142 89//140
f 88//137 148//141 93//138
f 148//141 92//143 93//138
f 89//140 149//142 148//141
f 149//142 150//144 148//141
f 148//141 150//144 92//143
f 150//144 91//42 92//143
f 90//30 75//29 149//142
f 75//29 74//114 149//142
f 149//142 74//114 150//144
f 74//114 73//116 150//144
f 150//144 73//116 91//42
f 73//116 11//40 91//42
f 94//145 88//137 12//139
f 95//146 151//147 94//145
f 96//33 152//148 95//146
f 94//145 151//147 88//137
f 151//147 89//140 88//137
f 95//146 152//148 151//147
f 152//148 153//149 151//147
f 151//147 153//149 89//140
f 153//149 90//30 89//140
f 96//33 78//32 152//148
f 78//32 77//119 152//148
f 152//148 77//119 153//149
f 77//119 76//121 153//149
f 153//149 76//121 90//30
f 76//121 7//28 90//30
f 97//150 94//145 12//139
f 98//151 154//152 97//150
f 99//36 155//153 98//151
f 97//150 154//152 94//145
f 154//152 95//146 94//145
f 98//151 155//153 154//152
f 155//153 156//154 154//152
f 154//152 156//154 95//146
f 156//154 96//33 95//146
f 99//36 81//35 155//153
f 81//35 80//124 155//153
f 155//153 80//124 156//154
f 80//124 79//126 156//154
f 156//154 79//126 96//33
f 79//126 8//31 96//33
f 100//155 97//150 12//139
f 101//156 157//157 100//155
f 102//39 158//158 101//156
f 100//155 157//157 97//150
f 157//157 98//151 97//150
f 101//156 158//158 157//157
f 158//158 159//159 157//157
f 157//157 159//159 98//151
f 159//159 99//36 98//151
f 102//39 84//38 158//158
f 84//38 83//129 158//158
f 158//158 83//129 159//159
f 83//129 82//131 159//159
f 159//159 82//131 99//36
f 82//131 9//34 99//36
f 93//138 100//155 12//139
f 92//143 160//160 93//138
f 91//42 161//161 92//143
f 93//138 160//160 100//155
f 160//160 101//156 100//155
f 92//143 161//161 160//160
f 161//161 162//162 160//160
f 160//160 162//162 101//156
f 162//162 102//39 101//156
f 91//42 87//41 161//161
f 87//41 86//134 161//161
f 161//161 86//134 162//162
f 86//134 85//136 162//162
f 162//162 85//136 102//39
f 85//136 10//37 102//39
