# Blender v2.72 (sub 0) OBJ File: 'building.blend'
# www.blender.org
o Cube_Cube.001
v 0.030079 -0.030210 0.060213
v 0.030079 -0.026407 0.060213
v 0.026098 -0.030210 0.060213
v 0.030079 -0.030210 0.056232
v 0.026098 -0.030210 0.056232
v 0.026098 -0.026407 0.060213
v 0.030079 -0.026407 0.056232
v 0.026098 -0.026407 0.056238
v -0.030079 -0.030210 0.060213
v -0.030079 -0.026407 0.060213
v -0.026098 -0.030210 0.060213
v -0.030079 -0.030210 0.056232
v -0.026098 -0.030210 0.056232
v -0.026098 -0.026407 0.060213
v -0.030079 -0.026407 0.056232
v -0.026098 -0.026407 0.056238
v 0.030079 0.029948 0.060213
v 0.030079 0.026145 0.060213
v 0.026098 0.029948 0.060213
v 0.030079 0.029948 0.056232
v 0.026098 0.029948 0.056232
v 0.026098 0.026145 0.060213
v 0.030079 0.026145 0.056232
v 0.026098 0.026145 0.056238
v -0.030079 0.029948 0.060213
v -0.030079 0.026145 0.060213
v -0.026098 0.029948 0.060213
v -0.030079 0.029948 0.056232
v -0.026098 0.029948 0.056232
v -0.026098 0.026145 0.060213
v -0.030079 0.026145 0.056232
v -0.026098 0.026145 0.056238
v 0.030079 -0.030210 0.000056
v 0.030079 -0.026407 0.000056
v 0.026098 -0.030210 0.000056
v 0.030079 -0.030210 0.004037
v 0.026098 -0.030210 0.004037
v 0.026098 -0.026407 0.000056
v 0.030079 -0.026407 0.004037
v 0.026098 -0.026407 0.004031
v -0.030079 -0.030210 0.000056
v -0.030079 -0.026407 0.000056
v -0.026098 -0.030210 0.000056
v -0.030079 -0.030210 0.004037
v -0.026098 -0.030210 0.004037
v -0.026098 -0.026407 0.000056
v -0.030079 -0.026407 0.004037
v -0.026098 -0.026407 0.004031
v 0.030079 0.029948 0.000056
v 0.030079 0.026145 0.000056
v 0.026098 0.029948 0.000056
v 0.030079 0.029948 0.004037
v 0.026098 0.029948 0.004037
v 0.026098 0.026145 0.000056
v 0.030079 0.026145 0.004037
v 0.026098 0.026145 0.004031
v -0.030079 0.029948 0.000056
v -0.030079 0.026145 0.000056
v -0.026098 0.029948 0.000056
v -0.030079 0.029948 0.004037
v -0.026098 0.029948 0.004037
v -0.026098 0.026145 0.000056
v -0.030079 0.026145 0.004037
v -0.026098 0.026145 0.004031
vt -0.926827 -0.926827
vt -0.864834 -0.926827
vt -0.864834 -0.866696
vt 0.071946 0.024391
vt 0.071946 0.087339
vt 0.009953 0.087339
vt 1.821520 -0.866696
vt 1.008726 -0.866696
vt 1.008726 -0.926827
vt 1.883513 -0.866696
vt 1.821520 -0.926827
vt 0.071946 1.035740
vt 0.009953 1.035740
vt 0.009953 0.975609
vt 1.689954 0.975609
vt 1.689954 1.800930
vt 1.628048 1.800930
vt -0.864834 0.915478
vt -0.864834 0.975609
vt -0.926827 0.975609
vt 0.946733 0.087339
vt 0.884740 0.087339
vt 0.884740 0.024391
vt 0.946733 -0.866696
vt 0.946733 0.975609
vt 0.946733 1.035740
vt 0.884740 1.035740
vt 0.884740 0.975609
vt -0.864834 -0.035740
vt -0.864834 0.024391
vt -0.926827 0.024391
vt 0.071946 -0.926827
vt 0.071946 -0.863879
vt 0.009953 -0.863879
vt 1.821520 0.024391
vt 1.821520 -0.035740
vt 1.883513 -0.035740
vt 0.009953 1.926827
vt 0.009953 1.866695
vt 0.071946 1.866695
vt -0.864834 0.084522
vt 0.009953 -0.038557
vt 0.071946 -0.038557
vt 0.946733 -0.035740
vt 1.008726 -0.035740
vt 1.008726 0.024391
vt 0.884740 1.866695
vt 0.946733 1.866695
vt 0.946733 1.926827
vt -0.052040 -0.866696
vt -0.052040 -0.926827
vt 0.009953 -0.926827
vt 0.009953 0.912661
vt 0.071946 0.912661
vt 0.071946 0.975609
vt 1.883513 0.087339
vt 1.824294 0.087339
vt 1.824294 0.024391
vt -0.052040 1.035740
vt 1.867609 1.801106
vt 1.808390 1.801018
vt 1.808390 0.975697
vt 0.009953 0.915478
vt -0.052040 0.975609
vt 0.884740 0.912661
vt 0.946733 0.912661
vt 1.824294 0.975609
vt 1.824294 0.912660
vt 1.883513 0.912660
vt -0.864834 1.035740
vt -0.926827 1.035740
vt -0.052040 -0.035740
vt 0.884740 -0.926827
vt 0.884740 -0.863879
vt 0.009953 -0.035740
vt 0.009953 0.024391
vt -0.052040 0.024391
vt 0.946733 -0.863879
vt 1.005951 0.024391
vt 1.005951 0.087339
vt -0.052040 1.866696
vt 0.884740 -0.038557
vt -0.052040 0.084522
vt 0.946733 -0.038557
vt 1.005951 0.912661
vt 1.005951 0.975609
vt -0.926827 1.926827
vt -0.926827 1.866696
vt -0.864834 1.866696
vt 1.689954 1.801018
vt 1.689954 0.975697
vt 1.749172 0.975609
vt 1.380336 1.801106
vt 1.318343 1.801018
vt 1.318343 0.975697
vt -0.926827 0.915478
vt -0.926827 0.084522
vt 1.194357 1.806565
vt 1.132451 1.806565
vt 1.132451 0.975609
vt 1.442329 0.975609
vt 1.442329 1.801106
vt 1.380336 1.801018
vt 1.749172 1.801106
vt 1.256350 1.801106
vt 1.194357 1.801018
vt 1.194357 0.975697
vt 1.566141 0.975609
vt 1.566141 1.800930
vt 1.504235 1.800930
vt 1.008639 0.975609
vt 1.070545 0.975609
vt 1.070545 1.806565
vt 0.009953 -0.866696
vt -0.926827 -0.035740
vt -0.926827 -0.866696
vt -0.052040 0.915478
vt 0.009953 0.084522
vt 0.946733 1.806565
vt 1.867609 1.801018
vt 1.867609 0.975697
vt 1.926827 0.975609
vt 1.256350 0.975697
vt 1.318343 0.975609
vt 1.318343 1.801106
vt -0.052040 1.926827
vt 1.442329 1.800930
vt 0.071946 1.926827
vt 1.628048 0.975609
vt 1.883513 -0.926827
vt 0.946733 0.024391
vt 0.946733 -0.926827
vt 1.883513 0.024391
vt 0.884740 1.926827
vt 1.867609 0.975609
vt 1.883513 0.975609
vt -0.864834 1.926827
vt 1.380336 0.975609
vt 1.194357 0.975609
vt 1.380336 0.975697
vt 1.256350 0.975609
vt 1.504235 0.975609
vt 1.008639 1.806565
vt 1.926827 1.801106
vt 1.256350 1.801018
vn 1.000000 0.000000 0.000000
vn 0.000000 -1.000000 0.000000
vn 0.000000 0.000000 1.000000
vn -0.001400 -0.000000 -1.000000
vn 0.000000 1.000000 0.000000
vn -1.000000 0.000000 0.000000
vn 0.001400 -0.000000 -1.000000
vn 0.000000 0.001500 -1.000000
vn 0.000000 -0.000000 -1.000000
vn -0.001400 0.000000 1.000000
vn 0.001400 0.000000 1.000000
vn 0.000000 0.001500 1.000000
vn 0.000000 -0.001500 1.000000
vn 0.000000 -0.001500 -1.000000
s off
f 1/1/1 4/2/1 7/3/1
f 3/4/2 5/5/2 4/6/2
f 6/7/3 14/8/3 11/9/3
f 2/10/3 6/7/3 3/11/3
f 8/12/4 7/13/4 4/14/4
f 14/15/5 6/16/5 8/17/5
f 15/18/6 12/19/6 9/20/6
f 12/21/2 13/22/2 11/23/2
f 5/5/2 3/4/2 11/23/2
f 11/9/3 14/8/3 10/24/3
f 12/25/7 15/26/7 16/27/7
f 13/28/8 16/27/8 8/12/8
f 23/29/1 20/30/1 17/31/1
f 20/32/5 21/33/5 19/34/5
f 19/35/3 22/36/3 18/37/3
f 20/38/4 23/39/4 24/40/4
f 25/31/6 28/30/6 31/41/6
f 27/42/5 29/43/5 28/4/5
f 26/44/3 30/45/3 27/46/3
f 32/47/7 31/48/7 28/49/7
f 39/50/1 36/51/1 33/52/1
f 36/53/2 37/54/2 35/55/2
f 35/56/9 38/57/9 34/58/9
f 36/14/10 39/13/10 40/59/10
f 40/60/6 37/61/6 5/62/6
f 42/63/6 41/14/6 44/64/6
f 43/28/2 45/65/2 44/66/2
f 42/67/9 46/68/9 43/69/9
f 48/70/11 47/71/11 44/20/11
f 20/30/1 23/29/1 55/72/1
f 20/32/5 52/73/5 53/74/5
f 50/75/1 49/76/1 52/77/1
f 51/78/5 53/74/5 52/73/5
f 50/79/9 54/80/9 51/21/9
f 56/81/10 55/39/10 52/38/10
f 28/4/5 29/43/5 61/82/5
f 63/83/6 31/41/6 28/30/6
f 63/83/6 60/77/6 57/76/6
f 60/23/5 61/82/5 59/84/5
f 59/66/9 62/85/9 58/86/9
f 60/87/11 63/88/11 64/89/11
f 21/90/6 53/91/6 56/92/6
f 56/93/2 55/94/2 23/95/2
f 10/96/6 26/97/6 31/41/6
f 32/98/1 30/99/1 14/100/1
f 30/45/3 26/44/3 10/24/3
f 15/26/7 31/48/7 32/47/7
f 64/101/2 32/102/2 31/103/2
f 29/61/1 32/104/1 64/92/1
f 8/105/5 7/106/5 39/107/5
f 39/50/1 7/3/1 4/2/1
f 36/53/2 4/6/2 5/5/2
f 45/65/2 43/28/2 35/55/2
f 43/69/9 46/68/9 38/57/9
f 37/64/12 40/59/12 48/70/12
f 38/108/5 46/109/5 48/110/5
f 56/111/6 54/112/6 38/113/6
f 54/80/9 50/79/9 34/58/9
f 34/114/1 50/75/1 55/72/1
f 56/81/10 40/59/10 39/13/10
f 23/29/1 18/115/1 2/116/1
f 2/10/3 18/37/3 22/36/3
f 6/113/6 22/112/6 24/100/6
f 7/13/4 8/12/4 24/40/4
f 13/22/2 12/21/2 44/66/2
f 12/19/6 15/18/6 47/117/6
f 63/83/6 58/118/6 42/63/6
f 42/67/9 58/86/9 62/85/9
f 46/119/1 62/25/1 64/111/1
f 47/71/11 48/70/11 64/89/11
f 13/120/1 45/121/1 48/122/1
f 15/123/5 16/124/5 48/125/5
f 64/89/13 56/81/13 53/126/13
f 64/110/2 62/127/2 54/101/2
f 54/80/9 62/85/9 59/66/9
f 51/78/5 59/84/5 61/82/5
f 27/46/3 30/45/3 22/36/3
f 29/43/5 27/42/5 19/34/5
f 21/128/14 24/40/14 32/47/14
f 22/129/2 30/17/2 32/109/2
f 2/116/1 1/1/1 7/3/1
f 1/76/2 3/4/2 4/6/2
f 3/11/3 6/7/3 11/9/3
f 1/130/3 2/10/3 3/11/3
f 5/55/8 8/12/8 4/14/8
f 16/129/5 14/15/5 8/17/5
f 10/96/6 15/18/6 9/20/6
f 9/131/2 12/21/2 11/23/2
f 13/22/2 5/5/2 11/23/2
f 9/132/3 11/9/3 10/24/3
f 13/28/8 12/25/8 16/27/8
f 5/55/8 13/28/8 8/12/8
f 18/115/1 23/29/1 17/31/1
f 17/52/5 20/32/5 19/34/5
f 17/133/3 19/35/3 18/37/3
f 21/128/14 20/38/14 24/40/14
f 26/97/6 25/31/6 31/41/6
f 25/76/5 27/42/5 28/4/5
f 25/131/3 26/44/3 27/46/3
f 29/134/14 32/47/14 28/49/14
f 34/114/1 39/50/1 33/52/1
f 33/14/2 36/53/2 35/55/2
f 33/133/9 35/56/9 34/58/9
f 37/64/12 36/14/12 40/59/12
f 8/135/6 40/60/6 5/62/6
f 47/117/6 42/63/6 44/64/6
f 41/25/2 43/28/2 44/66/2
f 41/136/9 42/67/9 43/69/9
f 45/19/12 48/70/12 44/20/12
f 52/77/1 20/30/1 55/72/1
f 21/33/5 20/32/5 53/74/5
f 55/72/1 50/75/1 52/77/1
f 49/132/5 51/78/5 52/73/5
f 49/131/9 50/79/9 51/21/9
f 53/126/13 56/81/13 52/38/13
f 60/23/5 28/4/5 61/82/5
f 60/77/6 63/83/6 28/30/6
f 58/118/6 63/83/6 57/76/6
f 57/131/5 60/23/5 59/84/5
f 57/25/9 59/66/9 58/86/9
f 61/137/13 60/87/13 64/89/13
f 24/104/6 21/90/6 56/92/6
f 24/138/2 56/93/2 23/95/2
f 15/18/6 10/96/6 31/41/6
f 16/139/1 32/98/1 14/100/1
f 14/8/3 30/45/3 10/24/3
f 16/27/7 15/26/7 32/47/7
f 63/140/2 64/101/2 31/103/2
f 61/62/1 29/61/1 64/92/1
f 40/141/5 8/105/5 39/107/5
f 36/51/1 39/50/1 4/2/1
f 37/54/2 36/53/2 5/5/2
f 37/54/2 45/65/2 35/55/2
f 35/56/9 43/69/9 38/57/9
f 45/19/12 37/64/12 48/70/12
f 40/142/5 38/108/5 48/110/5
f 40/143/6 56/111/6 38/113/6
f 38/57/9 54/80/9 34/58/9
f 39/50/1 34/114/1 55/72/1
f 55/39/10 56/81/10 39/13/10
f 7/3/1 23/29/1 2/116/1
f 6/7/3 2/10/3 22/36/3
f 8/99/6 6/113/6 24/100/6
f 23/39/4 7/13/4 24/40/4
f 45/65/2 13/22/2 44/66/2
f 44/64/6 12/19/6 47/117/6
f 47/117/6 63/83/6 42/63/6
f 46/68/9 42/67/9 62/85/9
f 48/143/1 46/119/1 64/111/1
f 63/88/11 47/71/11 64/89/11
f 16/144/1 13/120/1 48/122/1
f 47/145/5 15/123/5 48/125/5
f 61/137/13 64/89/13 53/126/13
f 56/142/2 64/110/2 54/101/2
f 51/21/9 54/80/9 59/66/9
f 53/74/5 51/78/5 61/82/5
f 19/35/3 27/46/3 22/36/3
f 21/33/5 29/43/5 19/34/5
f 29/134/14 21/128/14 32/47/14
f 24/108/2 22/129/2 32/109/2
