# Blender v2.72 (sub 0) OBJ File: 'building.blend'
# www.blender.org
o Cube_Cube.001
v 0.025000 -0.021839 0.050046
v 0.025000 -0.018678 0.050046
v 0.021691 -0.021839 0.050046
v 0.025000 -0.021839 0.046737
v 0.021691 -0.021839 0.046737
v 0.021691 -0.018678 0.050046
v 0.025000 -0.018678 0.046737
v 0.021691 -0.018678 0.046742
v -0.025000 -0.021839 0.050046
v 0.000000 -0.021839 0.050046
v -0.025000 -0.018678 0.050046
v -0.021691 -0.021839 0.050046
v -0.025000 -0.021839 0.046737
v -0.000000 -0.021839 0.046737
v -0.021691 -0.021839 0.046737
v 0.000000 -0.018678 0.050046
v -0.021691 -0.018678 0.050046
v -0.025000 -0.018678 0.046737
v -0.000000 -0.018678 0.046742
v -0.021691 -0.018678 0.046742
v 0.025000 0.028161 0.050046
v 0.025000 0.025000 0.050046
v 0.021691 0.028161 0.050046
v 0.025000 0.028161 0.046737
v 0.021691 0.028161 0.046737
v 0.025000 0.003161 0.050046
v 0.021691 0.003161 0.046742
v 0.021691 0.003161 0.050046
v 0.025000 0.003161 0.046737
v 0.021691 0.025000 0.050046
v 0.025000 0.025000 0.046737
v 0.021691 0.025000 0.046742
v -0.025000 0.028161 0.050046
v 0.000000 0.028161 0.050046
v -0.025000 0.025000 0.050046
v -0.021691 0.028161 0.050046
v -0.025000 0.028161 0.046737
v 0.000000 0.028161 0.046737
v -0.021691 0.028161 0.046737
v -0.025000 0.003161 0.050046
v -0.021691 0.003161 0.046742
v -0.021691 0.003161 0.050046
v -0.025000 0.003161 0.046737
v 0.000000 0.025000 0.050046
v -0.021691 0.025000 0.050046
v -0.025000 0.025000 0.046737
v 0.000000 0.025000 0.046742
v -0.021691 0.025000 0.046742
v 0.025000 -0.021839 0.000046
v 0.025000 -0.021839 0.025046
v 0.025000 -0.018678 0.000046
v 0.021691 -0.021839 0.000046
v 0.021691 -0.021839 0.025046
v 0.025000 -0.021839 0.003355
v 0.021691 -0.021839 0.003355
v 0.021691 -0.018678 0.000046
v 0.025000 -0.018678 0.025046
v 0.025000 -0.018678 0.003355
v 0.021691 -0.018678 0.003350
v -0.025000 -0.021839 0.000046
v -0.000000 -0.021839 0.000046
v -0.025000 -0.021839 0.025046
v -0.025000 -0.018678 0.000046
v -0.021691 -0.021839 0.000046
v -0.021691 -0.021839 0.025046
v -0.025000 -0.021839 0.003355
v -0.000000 -0.021839 0.003355
v -0.021691 -0.021839 0.003355
v -0.000000 -0.018678 0.000046
v -0.021691 -0.018678 0.000046
v -0.025000 -0.018678 0.025046
v -0.025000 -0.018678 0.003355
v -0.000000 -0.018678 0.003350
v -0.021691 -0.018678 0.003350
v 0.025000 0.028161 0.000046
v 0.025000 0.028161 0.025046
v 0.025000 0.025000 0.000046
v 0.021691 0.028161 0.000046
v 0.021691 0.028161 0.025046
v 0.025000 0.028161 0.003355
v 0.021691 0.028161 0.003355
v 0.025000 0.003161 0.000046
v 0.021691 0.003161 0.003350
v 0.021691 0.003161 0.000046
v 0.025000 0.003161 0.003355
v 0.021691 0.025000 0.000046
v 0.025000 0.025000 0.025046
v 0.025000 0.025000 0.003355
v 0.021691 0.025000 0.003350
v -0.025000 0.028161 0.000046
v -0.000000 0.028161 0.000046
v -0.025000 0.028161 0.025046
v -0.025000 0.025000 0.000046
v -0.021691 0.028161 0.000046
v -0.021691 0.028161 0.025046
v -0.025000 0.028161 0.003355
v 0.000000 0.028161 0.003355
v -0.021691 0.028161 0.003355
v -0.025000 0.003161 0.000046
v -0.021691 0.003161 0.003350
v -0.021691 0.003161 0.000046
v -0.025000 0.003161 0.003355
v -0.000000 0.025000 0.000046
v -0.021691 0.025000 0.000046
v -0.025000 0.025000 0.025046
v -0.025000 0.025000 0.003355
v 0.000000 0.025000 0.003350
v -0.021691 0.025000 0.003350
vn 1.000000 0.000000 0.000000
vn 0.000000 -1.000000 0.000000
vn 0.000000 1.000000 0.000000
vn 0.000000 0.000000 1.000000
vn -1.000000 -0.000000 0.000000
vn -0.001400 -0.000000 -1.000000
vn 0.000000 0.001500 -1.000000
vn 0.001400 -0.000000 -1.000000
vn 0.000000 -0.001500 -1.000000
vn 0.000000 -0.000000 -1.000000
vn -0.001400 0.000000 1.000000
vn 0.000000 0.001500 1.000000
vn 0.001400 0.000000 1.000000
vn 0.000000 -0.001500 1.000000
s off
f 7//1 4//1 50//1
f 5//2 53//2 50//2
f 1//1 4//1 7//1
f 10//2 14//2 5//2
f 3//2 5//2 4//2
f 6//3 8//3 19//3
f 26//4 28//4 6//4
f 2//1 7//1 29//1
f 6//4 16//4 10//4
f 2//4 6//4 3//4
f 28//5 27//5 8//5
f 8//6 27//6 29//6
f 8//6 7//6 4//6
f 5//7 14//7 19//7
f 18//5 71//5 62//5
f 62//2 65//2 15//2
f 18//5 13//5 9//5
f 15//2 14//2 10//2
f 13//2 15//2 12//2
f 19//3 20//3 17//3
f 17//4 42//4 40//4
f 43//5 18//5 11//5
f 10//4 16//4 17//4
f 12//4 17//4 11//4
f 20//1 41//1 42//1
f 43//8 41//8 20//8
f 13//8 18//8 20//8
f 19//7 14//7 15//7
f 87//1 76//1 24//1
f 76//3 79//3 25//3
f 31//1 24//1 21//1
f 25//3 38//3 34//3
f 24//3 25//3 23//3
f 47//2 32//2 30//2
f 30//4 28//4 26//4
f 29//1 31//1 22//1
f 34//4 44//4 30//4
f 23//4 30//4 22//4
f 32//5 27//5 28//5
f 29//6 27//6 32//6
f 24//6 31//6 32//6
f 47//9 38//9 25//9
f 37//5 92//5 105//5
f 39//3 95//3 92//3
f 33//5 37//5 46//5
f 34//3 38//3 39//3
f 36//3 39//3 37//3
f 45//2 48//2 47//2
f 40//4 42//4 45//4
f 35//5 46//5 43//5
f 45//4 44//4 34//4
f 35//4 45//4 36//4
f 42//1 41//1 48//1
f 48//8 41//8 43//8
f 48//8 46//8 37//8
f 39//9 38//9 47//9
f 57//1 50//1 54//1
f 50//2 53//2 55//2
f 58//1 54//1 49//1
f 55//2 67//2 61//2
f 54//2 55//2 52//2
f 73//3 59//3 56//3
f 56//10 84//10 82//10
f 85//1 58//1 51//1
f 61//10 69//10 56//10
f 52//10 56//10 51//10
f 59//5 83//5 84//5
f 85//11 83//11 59//11
f 54//11 58//11 59//11
f 73//12 67//12 55//12
f 66//5 62//5 71//5
f 68//2 65//2 62//2
f 60//5 66//5 72//5
f 61//2 67//2 68//2
f 64//2 68//2 66//2
f 70//3 74//3 73//3
f 99//10 101//10 70//10
f 63//5 72//5 102//5
f 70//10 69//10 61//10
f 63//10 70//10 64//10
f 101//1 100//1 74//1
f 74//13 100//13 102//13
f 74//13 72//13 66//13
f 68//12 67//12 73//12
f 88//1 80//1 76//1
f 81//3 79//3 76//3
f 75//1 80//1 88//1
f 91//3 97//3 81//3
f 78//3 81//3 80//3
f 86//2 89//2 107//2
f 82//10 84//10 86//10
f 77//1 88//1 85//1
f 86//10 103//10 91//10
f 77//10 86//10 78//10
f 84//5 83//5 89//5
f 88//11 89//11 83//11
f 89//11 88//11 80//11
f 81//14 97//14 107//14
f 106//5 105//5 92//5
f 92//3 95//3 98//3
f 106//5 96//5 90//5
f 98//3 97//3 91//3
f 96//3 98//3 94//3
f 107//2 108//2 104//2
f 104//10 101//10 99//10
f 102//5 106//5 93//5
f 91//10 103//10 104//10
f 94//10 104//10 93//10
f 108//1 100//1 101//1
f 106//13 102//13 100//13
f 96//13 106//13 108//13
f 107//14 97//14 98//14
f 57//1 7//1 50//1
f 4//2 5//2 50//2
f 2//1 1//1 7//1
f 3//2 10//2 5//2
f 1//2 3//2 4//2
f 16//3 6//3 19//3
f 2//4 26//4 6//4
f 26//1 2//1 29//1
f 3//4 6//4 10//4
f 1//4 2//4 3//4
f 6//5 28//5 8//5
f 7//6 8//6 29//6
f 5//7 8//7 4//7
f 8//7 5//7 19//7
f 13//5 18//5 62//5
f 13//2 62//2 15//2
f 11//5 18//5 9//5
f 12//2 15//2 10//2
f 9//2 13//2 12//2
f 16//3 19//3 17//3
f 11//4 17//4 40//4
f 40//5 43//5 11//5
f 12//4 10//4 17//4
f 9//4 12//4 11//4
f 17//1 20//1 42//1
f 18//8 43//8 20//8
f 15//7 13//7 20//7
f 20//7 19//7 15//7
f 31//1 87//1 24//1
f 24//3 76//3 25//3
f 22//1 31//1 21//1
f 23//3 25//3 34//3
f 21//3 24//3 23//3
f 44//2 47//2 30//2
f 22//4 30//4 26//4
f 26//1 29//1 22//1
f 23//4 34//4 30//4
f 21//4 23//4 22//4
f 30//5 32//5 28//5
f 31//6 29//6 32//6
f 25//9 24//9 32//9
f 32//9 47//9 25//9
f 46//5 37//5 105//5
f 37//3 39//3 92//3
f 35//5 33//5 46//5
f 36//3 34//3 39//3
f 33//3 36//3 37//3
f 44//2 45//2 47//2
f 35//4 40//4 45//4
f 40//5 35//5 43//5
f 36//4 45//4 34//4
f 33//4 35//4 36//4
f 45//1 42//1 48//1
f 46//8 48//8 43//8
f 39//9 48//9 37//9
f 48//9 39//9 47//9
f 58//1 57//1 54//1
f 54//2 50//2 55//2
f 51//1 58//1 49//1
f 52//2 55//2 61//2
f 49//2 54//2 52//2
f 69//3 73//3 56//3
f 51//10 56//10 82//10
f 82//1 85//1 51//1
f 52//10 61//10 56//10
f 49//10 52//10 51//10
f 56//5 59//5 84//5
f 58//11 85//11 59//11
f 55//12 54//12 59//12
f 59//12 73//12 55//12
f 72//5 66//5 71//5
f 66//2 68//2 62//2
f 63//5 60//5 72//5
f 64//2 61//2 68//2
f 60//2 64//2 66//2
f 69//3 70//3 73//3
f 63//10 99//10 70//10
f 99//5 63//5 102//5
f 64//10 70//10 61//10
f 60//10 63//10 64//10
f 70//1 101//1 74//1
f 72//13 74//13 102//13
f 68//12 74//12 66//12
f 74//12 68//12 73//12
f 87//1 88//1 76//1
f 80//3 81//3 76//3
f 77//1 75//1 88//1
f 78//3 91//3 81//3
f 75//3 78//3 80//3
f 103//2 86//2 107//2
f 77//10 82//10 86//10
f 82//1 77//1 85//1
f 78//10 86//10 91//10
f 75//10 77//10 78//10
f 86//5 84//5 89//5
f 85//11 88//11 83//11
f 81//14 89//14 80//14
f 89//14 81//14 107//14
f 96//5 106//5 92//5
f 96//3 92//3 98//3
f 93//5 106//5 90//5
f 94//3 98//3 91//3
f 90//3 96//3 94//3
f 103//2 107//2 104//2
f 93//10 104//10 99//10
f 99//5 102//5 93//5
f 94//10 91//10 104//10
f 90//10 94//10 93//10
f 104//1 108//1 101//1
f 108//13 106//13 100//13
f 98//14 96//14 108//14
f 108//14 107//14 98//14
