# Blender v2.72 (sub 0) OBJ File: 'building.blend'
# www.blender.org
o Cube.001_Cube.002
v -0.030232 -0.030232 0.000036
v -0.030232 -0.030232 -0.290221
v 0.030232 -0.030232 -0.290221
v 0.030232 -0.030232 0.000036
v -0.030232 0.030232 0.000036
v -0.030232 0.030232 -0.290221
v 0.030232 0.030232 -0.290221
v 0.030232 0.030232 0.000036
vn -1.000000 0.000000 0.000000
vn 1.000000 0.000000 0.000000
vn 0.000000 0.000000 1.000000
vn 0.000000 -1.000000 0.000000
vn 0.000000 1.000000 0.000000
s off
f 6//1 2//1 1//1
f 8//2 4//2 3//2
f 5//3 1//3 4//3
f 2//4 3//4 4//4
f 7//5 6//5 5//5
f 5//1 6//1 1//1
f 7//2 8//2 3//2
f 8//3 5//3 4//3
f 1//4 2//4 4//4
f 8//5 7//5 5//5
